<svg xmlns="http://www.w3.org/2000/svg" fill="none" viewBox="0 0 239 48">
    <path fill="#4EADF1" d="M30.755 0v48H3.605C.682 48-1.022 44.698.672 42.314L30.755 0Z"/>
    <path fill="#89D22E" d="m47.817 24 13.02 18.314C62.53 44.698 60.827 48 57.903 48H30.754l17.063-24Z"/>
    <path fill="#103C68" d="M47.817 24 30.755 0h27.148c2.924 0 4.628 3.302 2.934 5.686L47.817 24Z"/>
    <path fill="#1081D3" d="M30.754 48V0l17.063 24-17.063 24Z"/>
    <mask id="a" width="18" height="48" x="30" y="0" maskUnits="userSpaceOnUse" style="mask-type:alpha">
        <path fill="#1081D3" d="M30.754 48V0l17.063 24-17.063 24Z"/>
    </mask>
    <g mask="url(#a)">
        <path fill="#2399EE" d="M30.755 48V0l15.6 48h-15.6Z"/>
    </g>
    <mask id="b" width="32" height="24" x="30" y="24" maskUnits="userSpaceOnUse" style="mask-type:alpha">
        <path fill="#89D22E" d="m47.817 24 13.02 18.314C62.53 44.698 60.827 48 57.903 48H30.754l17.063-24Z"/>
    </mask>
    <g mask="url(#b)">
        <path fill="#79BF21" d="m30.754 0 15.6 48h-15.6V0Z"/>
    </g>
    <path fill="#1F1F22" d="M80.9 15.336 73.744 34.08h4.514l1.056-2.983h7.603l1.056 2.983h4.515l-7.154-18.744h-4.436Zm-.186 11.906 2.403-6.758 2.402 6.758h-4.805ZM93.905 34.08h7.286c5.016 0 8.976-3.88 8.976-9.372 0-5.491-3.96-9.372-8.976-9.372h-7.286V34.08Zm4.171-3.934V19.27h2.957c3.168 0 4.805 2.244 4.805 5.438 0 3.194-1.637 5.438-4.805 5.438h-2.957ZM117.099 34.08h4.435l7.155-18.744h-4.515l-4.857 13.596-4.858-13.596h-4.514l7.154 18.744ZM130.256 34.08h4.172V15.336h-4.172V34.08ZM136.908 34.08h11.088v-3.828h-6.917V26.53h5.597v-3.776h-5.597v-3.59h6.679v-3.828h-10.85V34.08ZM156.154 34.344c3.168 0 6.653-1.874 6.653-5.782 0-2.587-1.505-4.118-4.884-5.464l-1.267-.502c-1.954-.792-2.429-1.426-2.429-2.244 0-1.056.871-1.584 2.006-1.584 1.162 0 2.112.607 2.931 2.033l3.089-1.743c-.898-1.98-2.878-3.986-6.178-3.986-3.247 0-5.966 1.98-5.966 5.227 0 3.036 2.296 4.409 4.804 5.412l1.162.449c1.795.713 2.402 1.24 2.402 2.35 0 1.452-1.135 2.059-2.376 2.059-1.768 0-2.772-1.215-3.3-2.482l-3.379 1.558c.713 2.745 3.432 4.699 6.732 4.699ZM164.623 34.08h4.171v-5.333l1.558-1.927 5.438 7.26h4.567l-7.55-10.243 6.969-8.501h-4.646l-6.336 7.894v-7.894h-4.171V34.08ZM181.922 34.08h11.088v-3.828h-6.917V26.53h5.597v-3.776h-5.597v-3.59h6.679v-3.828h-10.85V34.08ZM202.33 34.344c3.986 0 7.233-2.56 7.233-7.366V15.336h-4.171v11.669c0 2.798-1.716 3.432-3.062 3.432-1.347 0-3.063-.634-3.063-3.432V15.336h-4.171v11.642c0 4.805 3.221 7.366 7.234 7.366ZM211.11 34.08h14.6v-3.828h-8.184L226 15.336h-14.52v3.828h8.105L211.11 34.08ZM227.684 34.08h11.088v-3.828h-6.917V26.53h5.597v-3.776h-5.597v-3.59h6.679v-3.828h-10.85V34.08Z"/>
</svg>