<?xml version="1.0" encoding="UTF-8" standalone="no"?>
<!-- Created with Inkscape (http://www.inkscape.org/) -->

<svg
   xmlns:dc="http://purl.org/dc/elements/1.1/"
   xmlns:cc="http://creativecommons.org/ns#"
   xmlns:rdf="http://www.w3.org/1999/02/22-rdf-syntax-ns#"
   xmlns:svg="http://www.w3.org/2000/svg"
   xmlns="http://www.w3.org/2000/svg"
   xmlns:sodipodi="http://sodipodi.sourceforge.net/DTD/sodipodi-0.dtd"
   xmlns:inkscape="http://www.inkscape.org/namespaces/inkscape"
   width="104.92857mm"
   height="74.077919mm"
   viewBox="0 0 104.92857 74.077919"
   version="1.1"
   id="svg139"
   inkscape:version="0.92.0 r15299"
   sodipodi:docname="centraal beheer.svg">
  <defs
     id="defs133" />
  <sodipodi:namedview
     id="base"
     pagecolor="#ffffff"
     bordercolor="#666666"
     borderopacity="1.0"
     inkscape:pageopacity="0.0"
     inkscape:pageshadow="2"
     inkscape:zoom="1.9297611"
     inkscape:cx="196.40044"
     inkscape:cy="138.10001"
     inkscape:document-units="mm"
     inkscape:current-layer="layer1"
     showgrid="false"
     fit-margin-top="0"
     fit-margin-left="0"
     fit-margin-right="0"
     fit-margin-bottom="0"
     inkscape:window-width="1280"
     inkscape:window-height="744"
     inkscape:window-x="-4"
     inkscape:window-y="-4"
     inkscape:window-maximized="1" />
  <metadata
     id="metadata136">
    <rdf:RDF>
      <cc:Work
         rdf:about="">
        <dc:format>image/svg+xml</dc:format>
        <dc:type
           rdf:resource="http://purl.org/dc/dcmitype/StillImage" />
        <dc:title></dc:title>
      </cc:Work>
    </rdf:RDF>
  </metadata>
  <g
     inkscape:label="Layer 1"
     inkscape:groupmode="layer"
     id="layer1"
     transform="translate(-149.11905,-153.62771)">
    <g
       id="g163"
       transform="translate(0.50000472,-0.50000248)">
      <path
         id="path143"
         d="m 216.50842,198.2575 h -2.80458 l -0.39687,1.66688 h -0.0265 c -0.39688,-1.03188 -1.21709,-1.93146 -3.22792,-1.93146 -4.18042,0 -6.19125,3.86291 -6.19125,6.64104 0,2.09021 1.11125,4.47146 4.04813,4.47146 1.53458,0 2.77812,-0.635 3.62479,-1.71979 h 0.0265 l -0.34396,1.4552 h 2.80458 z m 5.90021,8.22854 c -1.42875,0 -2.11666,-0.97896 -2.11666,-2.30187 0,-1.85209 1.42875,-3.57188 3.30729,-3.57188 1.42875,0 2.11666,0.97896 2.11666,2.30188 0,1.82562 -1.4552,3.57187 -3.30729,3.57187 m 7.43479,-8.22854 h -2.80458 l -0.39687,1.66688 h -0.0265 c -0.39688,-1.03188 -1.21709,-1.93146 -3.22792,-1.93146 -4.18042,0 -6.19125,3.86291 -6.19125,6.64104 0,2.09021 1.11125,4.47146 4.04813,4.47146 1.53458,0 2.77812,-0.635 3.62479,-1.71979 h 0.0265 l -0.34396,1.4552 h 2.80458 z m -20.76979,8.22854 c -1.42875,0 -2.11666,-0.97896 -2.11666,-2.30187 0,-1.85209 1.42875,-3.57188 3.30729,-3.57188 1.42875,0 2.11666,0.97896 2.11666,2.30188 0,1.82562 -1.4552,3.57187 -3.30729,3.57187 m 20.90209,2.35479 h 3.01625 l 3.46604,-14.81666 h -3.01625 z m -56.88542,0 h 3.01625 l 1.29646,-5.60916 c 0.29104,-1.34938 1.29646,-2.56646 2.8575,-2.56646 1.21708,0 1.64041,0.74083 1.64041,1.5875 0,0.39687 -0.0794,0.79375 -0.15875,1.08479 l -1.29645,5.50333 h 3.01625 l 1.32291,-5.68854 c 0.15875,-0.635 0.21167,-1.24354 0.21167,-1.77271 0,-1.98437 -0.9525,-3.41312 -3.33375,-3.41312 -1.53458,0 -2.59292,0.60854 -3.57188,1.66687 h -0.0265 l 0.3175,-1.42875 h -2.80459 z m 17.40958,0.26459 c 1.45521,0 2.61938,-0.50271 3.12209,-1.05834 l -0.89959,-2.11666 c -0.39687,0.3175 -0.89958,0.55562 -1.48166,0.55562 -0.71438,0 -1.21709,-0.37041 -1.21709,-1.13771 0,-0.21166 0.0529,-0.42333 0.10584,-0.71437 l 0.92604,-3.91583 h 3.57187 l 0.58209,-2.48709 h -3.57188 l 0.635,-2.88396 h -2.98979 l -0.66146,2.88396 h -1.24354 l -0.58208,2.48709 h 1.24354 l -0.84667,3.6777 c -0.10583,0.4498 -0.18521,0.97896 -0.18521,1.50813 -0.0265,1.95792 1.24354,3.20146 3.4925,3.20146 m 4.25979,-0.26459 h 3.01625 l 1.27,-5.42395 c 0.37042,-1.53459 1.56105,-2.48709 3.04271,-2.48709 0.39688,0 0.74084,0.0529 1.08479,0.23813 l 1.34938,-2.96334 c -0.39688,-0.13229 -0.89958,-0.21166 -1.34938,-0.21166 -1.40229,0 -2.77812,0.84666 -3.51895,2.03729 h -0.0265 l 0.39687,-1.77271 h -2.80458 z m -26.93458,-8.4402 c 1.13771,0 1.87854,0.60854 1.87854,2.11666 h -4.7625 c 0.55563,-1.50812 1.74625,-2.11666 2.88396,-2.11666 m -1.03187,8.70479 c 1.98437,0 3.57187,-0.68792 4.60375,-1.66688 l -1.69334,-1.82562 c -0.58208,0.55562 -1.53458,0.92604 -2.54,0.92604 -1.27,0 -2.46062,-0.60854 -2.54,-1.98438 h 7.51417 c 0.29104,-0.71437 0.39687,-1.53458 0.39687,-2.27541 0,-2.24896 -1.21708,-4.28625 -4.445,-4.28625 -4.1275,0 -6.29708,3.41312 -6.29708,6.40291 0,2.3548 1.34938,4.70959 5.00063,4.70959 m -11.64167,0 c 2.09021,0 3.81,-0.71438 5.18583,-1.79917 l -1.5875,-2.19604 c -0.89958,0.68792 -2.03729,1.16417 -3.22791,1.16417 -1.98438,0 -3.20146,-1.32292 -3.20146,-3.36021 0,-2.8575 2.40771,-5.42396 5.05354,-5.42396 1.21708,0 2.2225,0.55562 2.83104,1.29646 l 2.32833,-1.905 c -0.92604,-1.27 -2.2225,-2.2225 -4.7625,-2.2225 -5.50333,0 -8.65187,4.60375 -8.65187,8.49312 0,2.83104 1.66687,5.95313 6.0325,5.95313 m 9.55146,18.36208 h 6.42937 c 3.12209,0 5.55625,-2.09021 5.55625,-4.60375 0,-1.13771 -0.635,-2.19604 -1.53458,-2.56646 1.27,-0.74083 2.11667,-2.16958 2.11667,-3.51896 0,-1.7727 -1.21709,-3.25437 -3.91584,-3.25437 h -5.3975 z m 56.09166,-8.46667 c 1.13771,0 1.87855,0.60855 1.87855,2.11667 h -4.7625 c 0.58208,-1.50812 1.74625,-2.11667 2.88395,-2.11667 m -1.03187,8.7048 c 1.98437,0 3.57187,-0.68792 4.60375,-1.66688 l -1.69333,-1.82562 c -0.58209,0.55562 -1.53459,0.92604 -2.54,0.92604 -1.27,0 -2.46063,-0.60854 -2.54,-1.98438 h 7.54062 c 0.29104,-0.71437 0.39688,-1.53458 0.39688,-2.27541 0,-2.24896 -1.21709,-4.28625 -4.445,-4.28625 -4.1275,0 -6.29709,3.41312 -6.29709,6.40291 -0.0265,2.35479 1.32292,4.70959 4.97417,4.70959 m -10.87438,-8.7048 c 1.13771,0 1.87855,0.60855 1.87855,2.11667 h -4.7625 c 0.55562,-1.50812 1.74625,-2.11667 2.88395,-2.11667 m -1.03187,8.7048 c 1.98437,0 3.57187,-0.68792 4.60375,-1.66688 l -1.69333,-1.82562 c -0.58209,0.55562 -1.53459,0.92604 -2.56646,0.92604 -1.27,0 -2.46063,-0.60854 -2.54,-1.98438 h 7.54062 c 0.29104,-0.71437 0.39688,-1.53458 0.39688,-2.27541 0,-2.24896 -1.21709,-4.28625 -4.445,-4.28625 -4.1275,0 -6.29709,3.41312 -6.29709,6.40291 0,2.35479 1.34938,4.70959 5.00063,4.70959 m -23.57438,-8.7048 c 1.13771,0 1.87855,0.60855 1.87855,2.11667 h -4.7625 c 0.55562,-1.50812 1.74625,-2.11667 2.88395,-2.11667 m -1.03187,8.7048 c 1.98437,0 3.57187,-0.68792 4.60375,-1.66688 l -1.69333,-1.82562 c -0.58209,0.55562 -1.53459,0.92604 -2.54,0.92604 -1.27,0 -2.46063,-0.60854 -2.56646,-1.98438 h 7.54062 c 0.29104,-0.71437 0.39688,-1.53458 0.39688,-2.27541 0,-2.24896 -1.21709,-4.28625 -4.445,-4.28625 -4.15396,0 -6.29709,3.41312 -6.29709,6.40291 0,2.35479 1.34938,4.70959 5.00063,4.70959 m 12.77937,-15.0548 h -3.01625 l -3.46604,14.81667 h 3.01625 l 1.29646,-5.60917 c 0.29104,-1.34937 1.29646,-2.56645 2.8575,-2.56645 1.21708,0 1.64042,0.74083 1.64042,1.5875 0,0.39687 -0.0794,0.79375 -0.15875,1.08479 l -1.29646,5.50333 h 3.01625 l 1.32292,-5.68854 c 0.15875,-0.635 0.21166,-1.24354 0.21166,-1.77271 0,-1.98437 -0.97896,-3.41312 -3.36021,-3.41312 -1.4552,0 -2.46062,0.58208 -3.38666,1.64041 h -0.0265 z m 30.05667,14.81667 h 3.01625 l 1.27,-5.42396 c 0.37042,-1.53458 1.56104,-2.48708 3.04271,-2.48708 0.39687,0 0.74083,0.0529 1.08479,0.23812 l 1.34938,-2.96333 c -0.39688,-0.13229 -0.89959,-0.21167 -1.34938,-0.21167 -1.42875,0 -2.77812,0.84667 -3.54542,2.0373 l 0.39688,-1.77271 h -2.80458 z m -57.57333,-2.67229 0.74083,-3.25438 h 2.46063 c 1.05833,0 1.71979,0.39688 1.71979,1.32292 0,1.19063 -1.16417,1.93146 -2.43417,1.93146 z m 1.32291,-5.60917 0.71438,-3.01625 h 2.30187 c 0.79375,0 1.29646,0.44979 1.29646,1.21709 0,1.08479 -1.08479,1.79916 -1.95791,1.79916 z m 46.85771,-42.91541 c 0,-11.19188 11.45646,-19.15584 28.76021,-21.64292 -0.50271,2.19604 -0.92604,4.25979 -1.42875,6.45583 -12.27667,1.71979 -20.47875,7.43479 -20.47875,15.29292 0,5.29167 3.67771,7.48771 7.03792,7.62 l -1.11125,4.89479 c -6.0325,-0.26458 -12.77938,-4.07458 -12.77938,-12.62062"
         class="st0"
         inkscape:connector-curvature="0"
         style="fill:#00b332;stroke-width:0.26458332" />
      <path
         id="path145"
         d="m 243.73405,174.52438 c 1.98437,0 3.04271,1.05833 3.04271,3.20145 0,3.59834 -3.09563,6.11188 -7.88459,6.40292 l 1.98438,-8.99583 c 0.87312,-0.39688 2.01083,-0.60854 2.8575,-0.60854 m 9.31333,2.38125 c 0.0265,-4.02167 -2.19604,-6.82625 -6.72041,-6.82625 -1.74625,0 -3.36021,0.42333 -4.52438,0.9525 l 1.69333,-7.59355 c -1.7727,0.21167 -5.08,0.9525 -6.48229,1.50813 l -5.34458,24.02417 h 3.4925 c 11.1125,0 17.80646,-5.18584 17.88583,-12.065"
         inkscape:connector-curvature="0"
         style="fill:#0050f0;stroke-width:0.26458332" />
    </g>
  </g>
  <style
     id="style141">.st0{fill:#00b332}</style>
</svg>
